<svg width="17" height="17" viewBox="0 0 17 17" fill="none" xmlns="http://www.w3.org/2000/svg">
<g clip-path="url(#clip0_6_25)">
<path d="M15.5788 11.78V13.78C15.5796 13.9657 15.5415 14.1494 15.4672 14.3196C15.3928 14.4897 15.2837 14.6424 15.1469 14.7679C15.0101 14.8934 14.8485 14.989 14.6726 15.0485C14.4968 15.108 14.3104 15.13 14.1255 15.1133C12.074 14.8904 10.1035 14.1894 8.37215 13.0667C6.76136 12.0431 5.3957 10.6774 4.37215 9.06667C3.24546 7.32747 2.54431 5.34733 2.32548 3.28667C2.30882 3.10231 2.33073 2.91651 2.38981 2.74108C2.4489 2.56566 2.54386 2.40446 2.66866 2.26775C2.79345 2.13103 2.94535 2.0218 3.11467 1.94701C3.284 1.87222 3.46704 1.83351 3.65215 1.83333H5.65215C5.97568 1.83015 6.28934 1.94472 6.53465 2.15569C6.77997 2.36666 6.9402 2.65963 6.98548 2.98C7.06989 3.62004 7.22645 4.24848 7.45215 4.85333C7.54184 5.09195 7.56125 5.35127 7.50808 5.60059C7.45491 5.8499 7.33139 6.07874 7.15215 6.26L6.30548 7.10667C7.25452 8.7757 8.63645 10.1576 10.3055 11.1067L11.1521 10.26C11.3334 10.0808 11.5622 9.95723 11.8116 9.90406C12.0609 9.85089 12.3202 9.8703 12.5588 9.96C13.1637 10.1857 13.7921 10.3423 14.4321 10.4267C14.756 10.4724 15.0517 10.6355 15.2632 10.885C15.4746 11.1345 15.5869 11.453 15.5788 11.78Z" stroke="white" stroke-linecap="round" stroke-linejoin="round"/>
</g>
<defs>
<clipPath id="clip0_6_25">
<rect width="16" height="16" fill="white" transform="translate(0.912109 0.5)"/>
</clipPath>
</defs>
</svg>
